<svg width="240" height="91" viewBox="0 0 240 91" fill="none" xmlns="http://www.w3.org/2000/svg">
<g clip-path="url(#clip0_715_2850)">
<path fill-rule="evenodd" clip-rule="evenodd" d="M237.382 45.1288C237.382 69.3838 217.897 89.06 194 89.06H43.9997C20.1027 89.06 0.617363 69.3838 0.617363 45.1288C0.617363 20.9975 20.1027 1.32129 43.9997 1.32129H194C217.897 1.32129 237.382 20.9975 237.382 45.1288ZM231.622 45.1288C231.622 24.215 214.711 7.26129 194 7.26129H43.9997C23.2889 7.26129 6.37717 24.215 6.37717 45.1288C6.37717 66.0425 23.2889 83.12 43.9997 83.12H194C214.711 83.12 231.622 66.0425 231.622 45.1288Z" fill="white"/>
<path fill-rule="evenodd" clip-rule="evenodd" d="M226.72 45.1282C226.72 54.2857 223.044 62.5769 217.162 68.5169C211.157 74.4569 203.068 78.1694 194 78.1694H43.9997C25.985 78.1694 11.2791 63.4432 11.2791 45.1282C11.2791 36.0944 14.9556 27.8032 20.838 21.7394C26.8429 15.7994 34.9311 12.0869 43.9997 12.0869H194C212.014 12.0869 226.72 26.9369 226.72 45.1282ZM130.029 63.4432C130.029 63.0307 129.907 62.6594 129.662 62.3294L121.818 52.0582C121.573 51.6869 121.696 51.0682 122.063 50.9444C124.351 49.7894 125.944 48.4694 126.843 46.9844C127.905 45.3344 128.436 43.3544 128.436 41.0444C128.436 37.7444 127.251 34.9394 124.882 32.6294C122.595 30.4019 119.408 29.2882 115.323 29.2882H99.5145C99.1468 29.2882 98.7792 29.6594 98.7792 30.0307V62.7007C98.7792 63.0719 99.1468 63.4432 99.5145 63.4432H107.603C107.97 63.4432 108.338 63.0719 108.338 62.7007V53.0482C108.338 52.6769 108.706 52.3057 109.073 52.3057H111.279C111.524 52.3057 111.769 52.4294 111.892 52.6769L119.367 63.0719C119.449 63.2369 119.612 63.3607 119.858 63.4432H130.029ZM165.323 25.2044C165.323 25.2869 165.323 25.3694 165.323 25.4519C160.912 35.9707 153.559 44.8807 144.49 51.1919C144.245 51.3157 144.245 51.6869 144.367 51.8107C144.49 52.0582 144.858 52.0582 144.98 51.9344C154.294 45.4994 161.647 36.4657 166.181 25.8232C166.181 25.7407 166.222 25.6582 166.304 25.5757C169.367 23.3482 168.877 20.1307 168.51 18.8932C168.387 18.5219 168.019 18.3982 167.774 18.6457C166.794 19.3882 164.711 21.3682 165.323 25.2044ZM145.961 43.1482C145.593 45.2519 146.818 46.9844 147.309 47.6032C147.554 47.8507 147.799 47.8507 147.921 47.7269C149.147 46.8607 152.823 43.6432 151.353 40.3019C151.271 40.1369 151.271 40.0132 151.353 39.9307C151.434 39.7657 151.516 39.6007 151.598 39.4357C151.72 39.0644 152.211 39.0644 152.333 39.5594C152.701 40.5494 153.436 41.2919 153.926 41.6632C154.049 41.7869 154.294 41.7869 154.539 41.6632C155.397 40.6732 157.725 37.7032 156.745 35.2282C156.663 35.1457 156.663 35.0219 156.745 34.8569C156.827 34.6094 156.908 34.3207 156.99 33.9907C157.112 33.6194 157.603 33.4957 157.725 33.8669C158.215 34.4857 158.706 34.9807 159.073 35.1044C159.318 35.3519 159.563 35.2282 159.686 35.1044C160.421 34.1144 162.014 31.3919 161.034 29.4119C160.952 29.2469 160.912 29.1232 160.912 29.0407C160.993 28.7932 161.075 28.4632 161.157 28.0507C161.279 27.6794 161.769 27.6794 162.014 27.9269C162.382 28.4219 162.75 28.6694 163.117 28.7932C163.24 28.9169 163.485 28.9169 163.608 28.6694C163.975 27.9269 164.711 26.4419 164.343 25.2044C164.588 24.0907 165.078 22.1107 166.181 17.7794C166.304 17.1607 166.426 16.6657 166.549 16.4182C166.426 16.6657 166.181 17.6557 166.059 17.7794C164.833 21.9869 164.465 23.3482 164.343 25.0807C164.22 24.4619 163.853 23.9669 163.117 23.4719C162.995 23.4719 162.872 23.2244 162.995 22.9769C163.362 21.9869 163.853 20.3782 164.22 19.3882C164.098 19.7594 163.24 21.8632 162.75 23.3482C162.586 23.2657 162.464 23.2244 162.382 23.2244C162.382 23.2244 161.402 24.9569 161.524 26.4419C161.524 26.5244 161.524 26.6069 161.524 26.6894C161.402 26.9369 161.157 27.5557 161.034 28.1744C160.912 28.5457 160.544 28.6694 160.299 28.4219C160.054 28.1744 159.809 28.0094 159.563 27.9269C159.318 27.8032 159.196 27.5557 159.318 27.3082C159.686 26.3182 160.299 24.7094 160.544 23.8432C160.421 24.2144 160.054 25.0807 159.073 27.5557C158.91 27.5557 158.828 27.5557 158.828 27.5557C157.684 29.2882 157.153 30.8557 157.235 32.2582C157.235 32.3407 157.235 32.4232 157.235 32.5057C157.072 33.0007 156.908 33.4957 156.745 33.9907C156.745 34.2382 156.255 34.3619 156.01 34.1144C155.642 33.7432 155.274 33.4957 155.029 33.2482C154.907 33.1244 154.784 32.8769 154.907 32.6294C156.255 29.9069 157.358 26.9369 157.48 26.5657C154.784 32.5057 155.029 31.7632 154.171 33.6194C154.09 33.6194 154.049 33.6194 154.049 33.6194C152.701 35.4757 152.946 35.7232 151.843 37.9507C151.475 38.8169 150.495 38.9407 149.882 38.4457C149.882 38.3632 149.841 38.3219 149.76 38.3219C149.637 38.0744 149.392 38.0744 149.147 38.3219C148.412 39.0644 146.451 41.0444 145.961 43.1482ZM56.8674 30.0307C56.8674 29.6594 56.6223 29.2882 56.2546 29.2882H28.436C27.9458 29.2882 27.7007 29.6594 27.7007 30.0307V36.4657C27.7007 36.9607 27.9458 37.2082 28.436 37.2082H36.7693C37.2595 37.2082 37.5046 37.5794 37.5046 37.9507V62.7007C37.5046 63.0719 37.8723 63.4432 38.2399 63.4432H46.3282C46.6958 63.4432 47.0635 63.0719 47.0635 62.7007V37.9507C47.0635 37.5794 47.3086 37.2082 47.7988 37.2082H56.2546C56.6223 37.2082 56.8674 36.9607 56.8674 36.4657V30.0307ZM92.4066 30.1544C92.4066 29.6594 92.1615 29.4119 91.6713 29.4119H83.7056C83.2154 29.4119 82.9703 29.6594 82.9703 30.1544V48.4694C82.9703 50.9444 82.3984 52.8007 81.2546 54.0382C80.1108 55.2757 78.5177 55.8944 76.4752 55.8944C74.4327 55.8944 72.8805 55.2757 71.8184 54.0382C70.6746 52.8007 70.1027 50.9032 70.1027 48.3457V30.1544C70.1027 29.6594 69.735 29.4119 69.3674 29.4119H61.2792C60.9115 29.4119 60.5438 29.6594 60.5438 30.1544V48.3457C60.5438 53.4607 61.9736 57.3794 64.8331 60.1019C67.6108 62.8244 71.4916 64.1857 76.4752 64.1857C81.4589 64.1857 85.3805 62.8244 88.2399 60.1019C91.0994 57.2969 92.4883 53.4194 92.4066 48.4694V30.1544ZM169.49 50.0782C169.49 49.4594 168.755 49.3357 168.51 49.8307C167.856 51.5632 166.876 53.0894 165.568 54.4094C162.872 57.3794 159.278 58.8644 154.784 58.8644C150.372 58.8644 146.778 57.3794 144 54.4094C141.222 51.5219 139.833 47.7682 139.833 43.1482C139.833 38.5282 141.222 34.7744 144 31.8869L145.838 29.9069C146.206 29.5357 145.838 29.0407 145.47 29.1644C142.284 29.8244 139.588 31.2269 137.382 33.3719C133.951 36.5069 132.235 40.8382 132.235 46.3657C132.235 51.9757 133.951 56.3482 137.382 59.4832C140.813 62.7007 145.348 64.3094 150.985 64.3094C156.622 64.3094 161.157 62.7007 164.588 59.4832C167.407 56.8844 168.877 53.6669 169.49 50.0782ZM169.49 26.1944C170.225 24.4619 170.838 22.4819 170.961 21.7394C170.715 22.7294 170.103 24.2144 169.49 25.6994C169.367 25.9469 169.245 26.0707 169 25.9469C168.264 25.8232 167.652 25.9469 167.162 26.1944C169 23.4719 169.98 20.8732 170.593 18.2744C169.858 20.8732 168.264 24.0907 166.916 26.3182C165.936 27.0607 165.201 28.2982 164.588 29.6594C165.078 29.9894 165.609 30.1544 166.181 30.1544H166.304C166.671 30.1544 166.916 30.6494 166.671 30.8969C166.426 31.2269 166.181 31.5569 165.936 31.8869C165.854 31.9694 165.773 32.0107 165.691 32.0107C163.485 32.3819 161.769 35.1044 161.157 36.0944C161.034 36.3419 161.034 36.5894 161.279 36.7132C161.647 36.9607 162.26 37.3319 162.995 37.4557C163.362 37.4557 163.485 37.9507 163.24 38.1982C162.913 38.4457 162.586 38.6932 162.26 38.9407C162.178 39.0232 162.096 39.0644 162.014 39.0644C159.196 38.9407 156.745 42.0344 156.01 43.0244C155.764 43.2719 155.764 43.5194 156.01 43.6432C156.377 44.0144 157.235 44.7569 158.215 44.8807C158.706 45.0044 158.828 45.4994 158.461 45.7469C158.215 45.9119 158.011 46.0357 157.848 46.1182C157.766 46.2007 157.644 46.2007 157.48 46.1182C154.171 45.1282 150.495 48.5932 149.392 49.5832C149.269 49.7069 149.147 49.9544 149.269 50.2019C149.882 50.9444 151.23 52.4294 153.559 52.1819C156.745 51.6869 159.931 47.8507 159.931 47.8507C159.196 46.8607 159.318 45.4994 160.299 44.7569C163.485 42.5294 163.24 42.1582 164.711 40.5494C166.794 38.3219 168.387 35.9707 169.98 33.2482C168.264 35.7232 167.407 37.0844 164.956 39.8069C164.833 40.0544 164.588 40.0544 164.343 39.9307C164.098 39.6832 163.73 39.4357 163.24 39.3119C162.872 39.1882 162.872 38.6932 163.117 38.5694C163.526 38.2394 163.975 37.8269 164.465 37.3319C164.547 37.2494 164.588 37.2082 164.588 37.2082C166.549 36.4657 168.387 33.0007 168.387 32.7532C168.387 32.6707 168.346 32.6294 168.264 32.6294C169.245 31.0207 170.225 29.1644 170.593 28.1744C170.348 28.6694 169.49 30.2782 168.264 32.1344C168.142 32.3819 168.019 32.3819 167.774 32.2582C167.529 32.1757 167.243 32.0932 166.916 32.0107C166.549 32.0107 166.426 31.5157 166.549 31.2682C167.039 30.7732 167.407 30.1544 167.652 29.6594C167.652 29.6594 167.693 29.6594 167.774 29.6594C169 28.5457 169.858 26.3182 169.858 26.3182C169.776 26.2357 169.653 26.1944 169.49 26.1944ZM206.377 30.0307C206.377 29.6594 206.132 29.2882 205.642 29.2882H197.554C197.063 29.2882 196.818 29.6594 196.818 30.0307V41.0444C196.9 42.9419 196.941 44.5094 196.941 45.7469C196.941 46.4894 196.083 46.7369 195.715 46.2419L182.97 29.6594C182.889 29.4944 182.725 29.3707 182.48 29.2882H175.372C175.005 29.2882 174.637 29.6594 174.637 30.0307V62.7007C174.637 63.0719 175.005 63.4432 175.372 63.4432H183.583C184.073 63.4432 184.318 63.0719 184.318 62.7007V52.5532L184.196 47.2319C184.196 46.6132 185.054 46.2419 185.544 46.8607L198.044 63.1957C198.207 63.3607 198.412 63.4432 198.657 63.4432H205.642C206.132 63.4432 206.377 63.0719 206.377 62.7007V30.0307ZM119 41.2919C119 42.3644 118.714 43.3132 118.142 44.1382C117.488 44.8807 116.59 45.2519 115.446 45.2519H109.073C108.706 45.2519 108.338 44.8807 108.338 44.5094V37.7032C108.338 37.3319 108.706 37.0844 109.073 37.0844H115.323C116.467 37.0844 117.366 37.4969 118.019 38.3219C118.673 39.1469 119 40.1369 119 41.2919Z" fill="white"/>
</g>
<defs>
<clipPath id="clip0_715_2850">
<rect width="238.971" height="89.1" fill="white" transform="translate(0.127174 0.950195)"/>
</clipPath>
</defs>
</svg>
