<svg width="52" height="52" viewBox="0 0 52 52" fill="none" xmlns="http://www.w3.org/2000/svg">
<path d="M38.2568 36.0905L29.0637 45.2837C28.6616 45.6861 28.1842 46.0054 27.6587 46.2232C27.1332 46.441 26.5699 46.5531 26.0011 46.5531C25.4322 46.5531 24.869 46.441 24.3435 46.2232C23.818 46.0054 23.3405 45.6861 22.9385 45.2837L13.7432 36.0905C11.3191 33.6664 9.66839 30.5779 8.99966 27.2155C8.33092 23.8532 8.67423 20.3681 9.98617 17.2009C11.2981 14.0337 13.5198 11.3267 16.3702 9.42211C19.2206 7.51754 22.5718 6.50098 26 6.50098C29.4282 6.50098 32.7794 7.51754 35.6298 9.42211C38.4802 11.3267 40.7019 14.0337 42.0138 17.2009C43.3258 20.3681 43.6691 23.8532 43.0003 27.2155C42.3316 30.5779 40.6809 33.6664 38.2568 36.0905V36.0905Z" stroke="white" stroke-width="2" stroke-linecap="round" stroke-linejoin="round"/>
<path d="M30.5962 28.4292C31.8152 27.2102 32.5 25.5569 32.5 23.833C32.5 22.1091 31.8152 20.4558 30.5962 19.2368C29.3772 18.0178 27.7239 17.333 26 17.333C24.2761 17.333 22.6228 18.0178 21.4038 19.2368C20.1848 20.4558 19.5 22.1091 19.5 23.833C19.5 25.5569 20.1848 27.2102 21.4038 28.4292C22.6228 29.6482 24.2761 30.333 26 30.333C27.7239 30.333 29.3772 29.6482 30.5962 28.4292Z" stroke="white" stroke-width="2" stroke-linecap="round" stroke-linejoin="round"/>
</svg>
