<svg width="42" height="34" viewBox="0 0 42 34" fill="none" xmlns="http://www.w3.org/2000/svg">
<path d="M1.5 8.33301L18.595 19.7297C19.3071 20.2048 20.144 20.4583 21 20.4583C21.856 20.4583 22.6929 20.2048 23.405 19.7297L40.5 8.33301M5.83333 32.1663H36.1667C37.3159 32.1663 38.4181 31.7098 39.2308 30.8971C40.0435 30.0845 40.5 28.9823 40.5 27.833V6.16634C40.5 5.01707 40.0435 3.91487 39.2308 3.10221C38.4181 2.28955 37.3159 1.83301 36.1667 1.83301H5.83333C4.68406 1.83301 3.58186 2.28955 2.7692 3.10221C1.95655 3.91487 1.5 5.01707 1.5 6.16634V27.833C1.5 28.9823 1.95655 30.0845 2.7692 30.8971C3.58186 31.7098 4.68406 32.1663 5.83333 32.1663Z" stroke="white" stroke-width="2" stroke-linecap="round" stroke-linejoin="round"/>
</svg>
