<svg width="240" height="91" fill="none" xmlns="http://www.w3.org/2000/svg"><g clip-path="url(#a)" fill-rule="evenodd" clip-rule="evenodd" fill="red"><path d="M237.382 45.129c0 24.255-19.485 43.931-43.382 43.931H44C20.103 89.06.617 69.384.617 45.129.617 20.998 20.103 1.32 44 1.32h150c23.897 0 43.382 19.676 43.382 43.808Zm-5.76 0c0-20.914-16.911-37.868-37.622-37.868H44c-20.711 0-37.623 16.954-37.623 37.868S23.29 83.12 44 83.12h150c20.711 0 37.622-17.078 37.622-37.991Z"/><path d="M226.72 45.128c0 9.158-3.676 17.449-9.558 23.389-6.005 5.94-14.094 9.652-23.162 9.652H44c-18.015 0-32.72-14.726-32.72-33.04 0-9.035 3.676-17.326 9.558-23.39C26.843 15.8 34.93 12.087 44 12.087h150c18.014 0 32.72 14.85 32.72 33.041Zm-96.691 18.315c0-.412-.122-.784-.368-1.114l-7.843-10.27c-.245-.372-.122-.99.245-1.115 2.288-1.155 3.881-2.475 4.78-3.96 1.062-1.65 1.593-3.63 1.593-5.94 0-3.3-1.185-6.105-3.554-8.415-2.287-2.227-5.474-3.34-9.559-3.34H99.514c-.367 0-.735.37-.735.742V62.7c0 .37.368.742.735.742h8.089c.367 0 .735-.371.735-.742v-9.653c0-.371.368-.742.735-.742h2.206c.245 0 .49.123.613.37l7.475 10.396c.082.165.245.289.491.371h10.171Zm35.294-38.239v.248c-4.412 10.519-11.764 19.429-20.833 25.74-.245.124-.245.495-.123.619.123.247.491.247.613.123 9.314-6.435 16.667-15.468 21.201-26.11 0-.083.041-.166.123-.248 3.063-2.228 2.573-5.445 2.206-6.683-.123-.371-.491-.495-.736-.247-.98.742-3.063 2.722-2.451 6.558Zm-19.362 17.944c-.368 2.104.857 3.836 1.348 4.455.245.248.49.248.612.124 1.226-.866 4.902-4.084 3.432-7.425-.082-.165-.082-.289 0-.371l.245-.495c.122-.372.613-.372.735.123.368.99 1.103 1.733 1.593 2.104.123.124.368.124.613 0 .858-.99 3.186-3.96 2.206-6.435-.082-.082-.082-.206 0-.371.082-.248.163-.536.245-.866.122-.372.613-.495.735-.124.49.619.981 1.114 1.348 1.237.245.248.49.124.613 0 .735-.99 2.328-3.712 1.348-5.692-.082-.165-.123-.289-.123-.371.082-.248.164-.578.246-.99.122-.372.612-.372.857-.124.368.495.736.742 1.103.866.123.124.368.124.491-.124.367-.742 1.103-2.227.735-3.465.245-1.113.735-3.093 1.838-7.425.123-.618.245-1.113.368-1.36-.123.247-.368 1.237-.49 1.36-1.226 4.208-1.594 5.57-1.716 7.302-.123-.62-.49-1.114-1.226-1.61-.122 0-.245-.247-.122-.494.367-.99.858-2.599 1.225-3.589-.122.371-.98 2.475-1.47 3.96-.164-.082-.286-.124-.368-.124 0 0-.98 1.733-.858 3.218v.247a6.886 6.886 0 0 0-.49 1.485c-.123.372-.49.495-.735.248-.245-.248-.49-.413-.736-.495-.245-.124-.367-.371-.245-.619.368-.99.981-2.599 1.226-3.465-.123.371-.49 1.238-1.471 3.713h-.245c-1.144 1.732-1.675 3.3-1.593 4.702v.248l-.49 1.485c0 .247-.49.37-.735.123-.368-.37-.736-.618-.981-.866-.122-.124-.245-.371-.122-.619 1.348-2.722 2.451-5.692 2.573-6.063-2.696 5.94-2.451 5.197-3.309 7.053h-.122c-1.348 1.857-1.103 2.104-2.206 4.332-.368.866-1.348.99-1.961.495 0-.083-.041-.124-.122-.124-.123-.248-.368-.248-.613 0-.736.742-2.696 2.722-3.186 4.826ZM56.867 30.031c0-.372-.245-.743-.612-.743H28.436c-.49 0-.735.371-.735.743v6.435c0 .495.245.742.735.742h8.333c.49 0 .736.371.736.743V62.7c0 .37.367.742.735.742h8.088c.368 0 .735-.371.735-.742V37.95c0-.372.245-.743.736-.743h8.456c.367 0 .612-.247.612-.742V30.03Zm35.54.123c0-.495-.245-.742-.736-.742h-7.965c-.49 0-.736.247-.736.742V48.47c0 2.475-.572 4.332-1.715 5.57-1.144 1.237-2.737 1.855-4.78 1.855-2.042 0-3.595-.618-4.657-1.856-1.143-1.237-1.715-3.135-1.715-5.692V30.154c0-.495-.368-.742-.736-.742H61.28c-.368 0-.735.247-.735.742v18.192c0 5.115 1.43 9.033 4.289 11.756 2.778 2.722 6.659 4.084 11.642 4.084 4.984 0 8.905-1.362 11.765-4.084 2.86-2.805 4.248-6.683 4.167-11.633V30.154Zm77.083 19.924c0-.619-.735-.742-.98-.247a12.914 12.914 0 0 1-2.942 4.578c-2.696 2.97-6.29 4.455-10.784 4.455-4.412 0-8.006-1.485-10.784-4.455-2.778-2.887-4.167-6.64-4.167-11.26s1.389-8.375 4.167-11.262l1.838-1.98c.368-.371 0-.866-.368-.743-3.186.66-5.882 2.063-8.088 4.208-3.431 3.135-5.147 7.466-5.147 12.994 0 5.61 1.716 9.982 5.147 13.117 3.431 3.218 7.966 4.826 13.603 4.826s10.172-1.608 13.603-4.826c2.819-2.599 4.289-5.816 4.902-9.405Zm0-23.884c.735-1.732 1.348-3.712 1.471-4.455-.246.99-.858 2.475-1.471 3.96-.123.248-.245.372-.49.248-.736-.124-1.348 0-1.839.247 1.839-2.722 2.819-5.32 3.432-7.92-.735 2.6-2.329 5.817-3.677 8.044-.98.743-1.715 1.98-2.328 3.341.49.33 1.021.495 1.593.495h.123c.367 0 .612.495.367.743l-.735.99c-.082.082-.163.124-.245.124-2.206.37-3.922 3.093-4.534 4.083-.123.248-.123.495.122.62.368.247.981.618 1.716.742.367 0 .49.495.245.742l-.98.743c-.082.082-.164.123-.246.123-2.818-.123-5.269 2.97-6.004 3.96-.246.248-.246.495 0 .62.367.37 1.225 1.113 2.205 1.237.491.123.613.618.246.866-.246.165-.45.289-.613.371-.082.083-.204.083-.368 0-3.309-.99-6.985 2.475-8.088 3.465-.123.124-.245.371-.123.619.613.742 1.961 2.227 4.29 1.98 3.186-.495 6.372-4.331 6.372-4.331-.735-.99-.613-2.352.368-3.094 3.186-2.228 2.941-2.599 4.412-4.208 2.083-2.227 3.676-4.578 5.269-7.3-1.716 2.474-2.573 3.835-5.024 6.558-.123.247-.368.247-.613.124a2.365 2.365 0 0 0-1.103-.62c-.368-.123-.368-.618-.123-.742.409-.33.858-.742 1.348-1.237l.123-.124c1.961-.742 3.799-4.207 3.799-4.455 0-.082-.041-.124-.123-.124.981-1.608 1.961-3.465 2.329-4.455-.245.495-1.103 2.104-2.329 3.96-.122.248-.245.248-.49.124a11.649 11.649 0 0 0-.858-.247c-.367 0-.49-.495-.367-.743.49-.495.858-1.114 1.103-1.609h.122c1.226-1.113 2.084-3.34 2.084-3.34-.082-.083-.205-.125-.368-.125Zm36.887 3.837c0-.372-.245-.743-.735-.743h-8.088c-.491 0-.736.371-.736.743v11.013c.082 1.898.123 3.465.123 4.703 0 .742-.858.99-1.226.495L182.97 29.659c-.081-.165-.245-.288-.49-.37h-7.108c-.367 0-.735.37-.735.742V62.7c0 .37.368.742.735.742h8.211c.49 0 .735-.371.735-.742V52.553l-.122-5.321c0-.619.858-.99 1.348-.371l12.5 16.335a.826.826 0 0 0 .613.247h6.985c.49 0 .735-.371.735-.742V30.03ZM119 41.29c0 1.073-.286 2.022-.858 2.847-.654.743-1.552 1.114-2.696 1.114h-6.373c-.367 0-.735-.371-.735-.743v-6.806c0-.371.368-.619.735-.619h6.25c1.144 0 2.043.413 2.696 1.238.654.825.981 1.815.981 2.97Z"/></g><defs><clipPath id="a"><path fill="#fff" transform="translate(.127 .95)" d="M0 0h238.971v89.1H0z"/></clipPath></defs></svg>