<svg width="42" height="42" viewBox="0 0 42 42" fill="none" xmlns="http://www.w3.org/2000/svg">
<path d="M2.7692 2.7692C1.95655 3.58186 1.5 4.68406 1.5 5.83333V8C1.5 25.9487 16.0513 40.5 34 40.5H36.1667C37.3159 40.5 38.4181 40.0435 39.2308 39.2308C40.0435 38.4181 40.5 37.3159 40.5 36.1667V29.0622C40.5001 28.6072 40.357 28.1638 40.091 27.7948C39.825 27.4257 39.4496 27.1498 39.018 27.006L29.2832 23.7603C28.7884 23.5959 28.251 23.6153 27.7694 23.8151C27.2879 24.0149 26.8945 24.3816 26.6615 24.848L24.2132 29.7382C18.908 27.3411 14.6589 23.092 12.2618 17.7868L17.152 15.3385C17.6184 15.1055 17.9851 14.7121 18.1849 14.2306C18.3847 13.749 18.4041 13.2116 18.2397 12.7168L14.994 2.982C14.8504 2.55074 14.5747 2.17557 14.2061 1.90961C13.8375 1.64364 13.3946 1.50035 12.94 1.5H5.83333C4.68406 1.5 3.58186 1.95655 2.7692 2.7692Z" stroke="white" stroke-width="2" stroke-linecap="round" stroke-linejoin="round"/>
</svg>
