<svg width="730" height="504" viewBox="0 0 730 504"  xmlns="http://www.w3.org/2000/svg">
<path d="M483.409 496.916C499.848 498.454 534.778 500.386 556.446 500.994C566.426 501.28 580.952 501.817 588.71 502.175C609.422 503.176 645.684 504.178 656.108 503.999C673.197 503.713 702.419 500.672 706.657 498.74C707.717 498.275 709.186 498.633 710.109 499.599C713.219 502.854 716.466 503.069 720.089 500.279C721.969 498.812 723.541 497.131 723.541 496.558C723.541 495.986 724.532 494.197 725.728 492.587C729.898 487.007 729.932 474.272 725.797 434.064C724.156 417.966 723.541 356.33 724.942 347.279C725.592 343.165 726.002 336.082 725.865 331.504C724.976 298.199 726.344 187.912 727.779 176.787C728.497 171.242 729.385 146.237 729.693 121.232C730.342 72.6888 730.171 70.4709 724.6 58.4156C723.37 55.7684 722.379 53.1212 722.379 52.5131C722.379 51.905 721.559 50.6887 720.568 49.8302C719.576 48.9716 718.414 47.3261 718.004 46.2171C717.594 45.1082 714.313 40.6724 710.69 36.3797C705.461 30.191 703.444 28.5812 700.847 28.5812C697.703 28.5812 694.046 31.1569 694.046 33.4105C694.046 34.0187 693.123 34.5195 691.961 34.5195C690.799 34.5195 689.5 34.913 689.056 35.378C688.611 35.8431 686.082 36.4154 683.485 36.5943C674.975 37.2382 599.613 37.0593 541.135 36.2724C509.657 35.8431 478.077 35.5211 470.9 35.5211C463.723 35.5211 452.581 35.0561 446.087 34.4479C437.884 33.6967 433.851 33.7683 432.826 34.6268C431.937 35.378 429.853 35.5569 427.631 35.0561C425.58 34.591 417.036 34.0544 408.628 33.8398C371.033 32.9813 347.621 32.0154 342.358 31.0496C336.377 29.9406 323.15 29.9406 322.125 31.0138C321.783 31.3715 317.784 31.2284 313.238 30.6918C299.431 29.0821 289.246 28.8317 287.024 30.0479C285.623 30.7991 284.495 30.7276 283.675 29.8691C282.137 28.2593 277.215 28.152 277.215 29.726C277.215 30.4772 276.156 30.4414 274.242 29.6902C272.601 29.0463 270.277 28.8317 269.081 29.2252C267.885 29.6186 266.313 29.4398 265.561 28.7959C264.74 28.1162 260.81 27.9731 255.717 28.5097C245.806 29.5113 212.961 29.1536 210.227 28.0089C209.202 27.5796 208.04 27.7942 207.63 28.5097C207.083 29.404 206.194 29.404 204.519 28.4739C203.221 27.7227 198.128 27.2934 192.967 27.4723C175.332 28.0447 134.148 26.7926 132.302 25.6121C131.994 25.4333 124.851 24.8967 116.444 24.4316C108.036 23.9666 100.722 23.3227 100.175 22.9649C99.6283 22.6072 83.8382 22.178 65.0747 21.9991C46.277 21.8202 30.5894 21.6414 30.1793 21.5698C29.7692 21.534 29.7008 18.3861 30.0426 14.6299C30.5553 8.4055 30.316 7.40387 27.5476 3.93393C24.0615 -0.430326 18.2855 -1.39619 17.1918 2.21685C16.85 3.36157 16.1323 5.36483 15.6196 6.65265C13.6715 11.5535 8.74993 36.8447 9.46766 38.1683C10.1854 39.4919 11.45 51.7261 11.3474 56.4481C10.8689 77.8759 8.78411 110.572 7.69043 113.935C6.83599 116.582 6.39168 125.167 6.49421 137.473L6.63092 156.862L3.07645 161.047C-0.0337181 164.732 -0.375494 165.841 0.273881 169.955C1.02579 174.82 3.86253 181.581 5.67395 182.797C6.25497 183.19 6.9727 194.673 7.2803 208.267C7.58789 221.896 8.30562 234.918 8.92082 237.207C9.53602 239.496 10.6297 249.477 11.3474 259.386C12.4069 273.588 12.3728 281.35 11.2449 295.874C11.2449 295.91 11.2449 295.946 11.2449 295.981C6.93852 351.286 17.807 426.337 8.88664 475.917C7.7246 482.357 7.79296 484.288 9.36513 489.153C10.3905 492.301 10.9373 495.592 10.5955 496.487C9.74108 498.848 15.4146 503.927 18.9007 503.892C20.507 503.892 25.1552 503.283 29.2223 502.604C33.2553 501.924 41.9364 501.137 48.4643 500.851C54.9923 500.601 61.8961 500.1 63.7417 499.778C67.9456 499.027 71.1241 498.669 96.5864 496.022C113.573 494.233 126.97 493.911 177.006 493.983C210.022 494.018 239.859 494.483 243.311 494.984C247.686 495.628 252.334 495.306 258.691 493.947C266.415 492.301 277.933 491.979 335.659 491.729C402.681 491.479 433.031 492.158 458.459 494.519C465.671 495.235 476.881 496.308 483.409 496.916ZM43.9529 297.698C43.3377 297.698 42.825 297.448 42.825 297.162C42.825 296.876 43.3377 296.303 43.9529 295.91C44.5681 295.516 45.0808 295.731 45.0808 296.446C45.0808 297.126 44.5681 297.698 43.9529 297.698ZM37.1515 253.698C37.1515 247.617 37.8693 246.222 39.9199 248.225C41.4921 249.763 40.9794 253.197 38.6554 256.739C37.2883 258.885 37.1515 258.599 37.1515 253.698ZM41.7997 75.5149C40.501 74.2628 39.4073 72.9393 39.4073 72.5458C39.4073 71.8303 60.0164 72.3311 60.7683 73.0823C61.281 73.5832 56.7353 79.9149 53.0783 83.8141C49.6947 87.3914 48.4302 87.0336 46.0377 81.8466C45.0466 79.5929 43.1326 76.7669 41.7997 75.5149ZM603.817 448.122C604.705 449.052 604.09 449.41 601.424 449.41C597.255 449.41 596.776 448.73 600.194 447.586C601.493 447.192 603.133 447.407 603.817 448.122ZM468.918 302.742C467.038 303.887 464.714 304.817 463.723 304.817C462.731 304.817 461.911 305.497 461.911 306.32C461.911 308.072 453.743 310.863 447.146 311.364C441.439 311.793 439.32 308.824 442.567 304.924C443.694 303.529 444.925 302.42 445.267 302.42C445.608 302.42 449.607 300.024 454.153 297.09C458.698 294.157 462.902 291.76 463.517 291.76C464.133 291.76 465.431 290.973 466.423 290.043C469.123 287.467 471.173 289.542 471.823 295.48C472.267 300.238 472.028 300.811 468.918 302.742ZM657.886 71.8303C658.467 71.4368 658.979 72.2238 658.979 73.5832C658.979 74.9425 658.774 76.0157 658.535 76.0157C657.476 76.0157 656.929 72.4384 657.886 71.8303ZM47.2681 301.168C48.6694 302.42 50.515 303.172 51.4036 302.814C54.0695 301.741 56.3935 304.817 56.3594 309.396C56.291 316.729 49.1821 322.632 44.3972 319.305C43.1326 318.411 41.7313 304.746 42.5516 300.954C43.0985 298.271 44.158 298.342 47.2681 301.168Z"/>
</svg>
