<svg width="730" height="504" viewBox="0 0 730 504" xmlns="http://www.w3.org/2000/svg">
<path d="M483.409 496.916C499.849 498.454 534.778 500.386 556.447 500.994C566.427 501.28 580.952 501.817 588.711 502.175C609.422 503.176 645.685 504.178 656.109 503.999C673.198 503.713 702.42 500.672 706.658 498.74C707.717 498.275 709.187 498.633 710.11 499.599C713.22 502.854 716.467 503.069 720.089 500.279C721.969 498.812 723.541 497.131 723.541 496.558C723.541 495.986 724.533 494.197 725.729 492.587C729.898 487.007 729.933 474.272 725.797 434.064C724.157 417.966 723.541 356.33 724.943 347.279C725.592 343.165 726.002 336.082 725.866 331.504C724.977 298.199 726.344 187.912 727.779 176.787C728.497 171.242 729.386 146.237 729.693 121.232C730.343 72.6889 730.172 70.4709 724.601 58.4156C723.37 55.7684 722.379 53.1212 722.379 52.5131C722.379 51.905 721.559 50.6887 720.568 49.8302C719.577 48.9716 718.415 47.3261 718.005 46.2171C717.595 45.1082 714.313 40.6724 710.691 36.3797C705.461 30.191 703.445 28.5812 700.847 28.5812C697.703 28.5812 694.046 31.1569 694.046 33.4105C694.046 34.0187 693.123 34.5195 691.961 34.5195C690.799 34.5195 689.5 34.913 689.056 35.378C688.612 35.8431 686.083 36.4154 683.485 36.5943C674.975 37.2382 599.613 37.0593 541.135 36.2724C509.658 35.8431 478.078 35.5211 470.9 35.5211C463.723 35.5211 452.581 35.0561 446.087 34.4479C437.885 33.6967 433.852 33.7683 432.826 34.6268C431.938 35.378 429.853 35.5569 427.631 35.0561C425.581 34.591 417.036 34.0545 408.629 33.8398C371.033 32.9813 347.622 32.0154 342.358 31.0496C336.377 29.9406 323.15 29.9406 322.125 31.0138C321.783 31.3715 317.785 31.2284 313.239 30.6918C299.431 29.0821 289.246 28.8316 287.025 30.0479C285.623 30.7991 284.496 30.7276 283.675 29.8691C282.137 28.2593 277.216 28.152 277.216 29.726C277.216 30.4772 276.156 30.4414 274.242 29.6902C272.602 29.0463 270.278 28.8317 269.081 29.2252C267.885 29.6186 266.313 29.4398 265.561 28.7959C264.741 28.1162 260.81 27.9731 255.718 28.5097C245.806 29.5113 212.962 29.1536 210.228 28.0089C209.202 27.5796 208.04 27.7942 207.63 28.5097C207.083 29.404 206.195 29.404 204.52 28.4739C203.221 27.7227 198.129 27.2934 192.968 27.4723C175.332 28.0447 134.148 26.7926 132.303 25.6121C131.995 25.4333 124.852 24.8967 116.444 24.4316C108.036 23.9666 100.722 23.3227 100.176 22.9649C99.6287 22.6072 83.8387 22.178 65.0752 21.9991C46.2775 21.8202 30.5899 21.6414 30.1798 21.5698C29.7697 21.534 29.7013 18.3861 30.0431 14.6299C30.5558 8.4055 30.3165 7.40387 27.5481 3.93393C24.062 -0.430326 18.286 -1.39619 17.1923 2.21685C16.8505 3.36157 16.1328 5.36483 15.6201 6.65265C13.672 11.5535 8.75042 36.8447 9.46815 38.1683C10.1859 39.4919 11.4505 51.7261 11.3479 56.4481C10.8694 77.8759 8.7846 110.572 7.69092 113.935C6.83647 116.582 6.39216 125.167 6.4947 137.473L6.63141 156.862L3.07693 161.047C-0.0332299 164.732 -0.375006 165.841 0.274369 169.955C1.02628 174.82 3.86302 181.581 5.67443 182.797C6.25545 183.19 6.97319 194.673 7.28078 208.267C7.58838 221.896 8.30611 234.918 8.92131 237.207C9.53651 239.496 10.6302 249.477 11.3479 259.386C12.4074 273.588 12.3733 281.35 11.2454 295.874C11.2454 295.91 11.2454 295.946 11.2454 295.981C6.93901 351.286 17.8075 426.337 8.88713 475.917C7.72509 482.357 7.79345 484.288 9.36562 489.153C10.3909 492.301 10.9378 495.592 10.596 496.487C9.74157 498.848 15.4151 503.927 18.9012 503.892C20.5075 503.892 25.1557 503.284 29.2228 502.604C33.2558 501.924 41.9369 501.137 48.4648 500.851C54.9928 500.601 61.8966 500.1 63.7422 499.778C67.9461 499.027 71.1246 498.669 96.5869 496.022C113.573 494.233 126.971 493.911 177.007 493.983C210.023 494.018 239.86 494.483 243.312 494.984C247.686 495.628 252.334 495.306 258.691 493.947C266.416 492.301 277.933 491.979 335.659 491.729C402.682 491.479 433.032 492.158 458.46 494.519C465.671 495.235 476.881 496.308 483.409 496.916ZM43.9534 297.698C43.3382 297.698 42.8255 297.448 42.8255 297.162C42.8255 296.876 43.3382 296.303 43.9534 295.91C44.5686 295.516 45.0812 295.731 45.0812 296.446C45.0812 297.126 44.5686 297.698 43.9534 297.698ZM37.152 253.698C37.152 247.617 37.8698 246.222 39.9204 248.225C41.4926 249.763 40.9799 253.197 38.6559 256.739C37.2887 258.885 37.152 258.599 37.152 253.698ZM41.8002 75.5149C40.5014 74.2628 39.4078 72.9393 39.4078 72.5458C39.4078 71.8303 60.0169 72.3311 60.7688 73.0823C61.2814 73.5832 56.7358 79.9149 53.0788 83.8141C49.6952 87.3914 48.4307 87.0336 46.0382 81.8466C45.0471 79.5929 43.1331 76.7669 41.8002 75.5149ZM603.817 448.122C604.706 449.052 604.091 449.41 601.425 449.41C597.255 449.41 596.777 448.73 600.194 447.586C601.493 447.192 603.134 447.407 603.817 448.122ZM468.918 302.742C467.038 303.887 464.714 304.817 463.723 304.817C462.732 304.817 461.912 305.497 461.912 306.32C461.912 308.072 453.743 310.863 447.147 311.364C441.439 311.793 439.32 308.824 442.567 304.924C443.695 303.529 444.925 302.42 445.267 302.42C445.609 302.42 449.608 300.024 454.153 297.09C458.699 294.157 462.903 291.76 463.518 291.76C464.133 291.76 465.432 290.973 466.423 290.043C469.123 287.467 471.174 289.542 471.823 295.48C472.267 300.238 472.028 300.811 468.918 302.742ZM657.886 71.8303C658.467 71.4368 658.98 72.2238 658.98 73.5832C658.98 74.9425 658.775 76.0157 658.536 76.0157C657.476 76.0157 656.929 72.4384 657.886 71.8303ZM47.2686 301.168C48.6699 302.42 50.5155 303.172 51.4041 302.814C54.07 301.741 56.394 304.817 56.3599 309.396C56.2915 316.729 49.1826 322.632 44.3977 319.305C43.1331 318.411 41.7318 304.746 42.5521 300.954C43.0989 298.271 44.1584 298.342 47.2686 301.168Z"/>
</svg>
