<svg width="24" height="25" viewBox="0 0 24 25" fill="none" xmlns="http://www.w3.org/2000/svg">
<path d="M4 4.49993V9.49993H4.582M4.582 9.49993C5.24585 7.85806 6.43568 6.48284 7.96503 5.58979C9.49438 4.69674 11.2768 4.33634 13.033 4.56507C14.7891 4.79379 16.4198 5.59872 17.6694 6.8537C18.919 8.10869 19.7168 9.74279 19.938 11.4999M4.582 9.49993H9M20 20.4999V15.4999H19.419M19.419 15.4999C18.7542 17.1408 17.564 18.515 16.0348 19.4072C14.5056 20.2995 12.7237 20.6594 10.9681 20.4308C9.21246 20.2022 7.5822 19.3978 6.33253 18.1437C5.08287 16.8895 4.28435 15.2564 4.062 13.4999M19.419 15.4999H15" stroke="white" stroke-width="2" stroke-linecap="round" stroke-linejoin="round"/>
</svg>
